<svg width="60" height="60" viewBox="0 0 60 60" fill="none" xmlns="http://www.w3.org/2000/svg">
  <defs>
    <linearGradient id="bg" x1="0" y1="60" x2="60" y2="0" gradientUnits="userSpaceOnUse">
      <stop stop-color="#6AB2F9"/>
      <stop offset="0.34" stop-color="#6581F2"/>
      <stop offset="0.67" stop-color="#6056EB"/>
      <stop offset="0.84" stop-color="#5E45E9"/>
    </linearGradient>
  </defs>
  <rect width="60" height="60" rx="14" fill="url(#bg)"/>
  <path d="M18.5 18L12.5 34.5L8.5 24H4L11 39H14.5L23 18H18.5Z" fill="white"/>
  <path d="M38.5 18V27H27V18H22V39H27V30H38.5V39H43.5V18H38.5Z" fill="white"/>
  <path d="M56 24.5C56 25.5 55.7 26.4 55.2 27.2C54.7 28 53.8 28.7 52.6 29.2C51.5 29.7 49.9 30 48 30C47 30 45.8 29.8 44.8 29.5C43.7 29.2 42.2 28.4 41 27L43.5 24C46 26.7 48.2 26.2 49 26.2C49.9 26.2 50.6 26 51 25.7C51.5 25.3 51.7 24.9 51.7 24.4C51.7 23.8 51.5 23.4 51.1 23.1C50.6 22.8 49.8 22.6 48.8 22.6H47V20L47.1 19.9L53 13H55.5V15.5L55.2 15.8L51.5 20.2C52.6 20.4 53.5 20.8 54.2 21.4C55.3 22.4 56 23.3 56 24.5Z" fill="white"/>
</svg>
